<svg xmlns="http://www.w3.org/2000/svg" viewBox="0 0 200 200" role="img"><g transform="rotate(42 100 100)"><g transform="translate(5 7)" opacity="0.16"><polygon points="91.0,18.0 95.0,12.0 105.0,12.0 109.0,18.0 111.0,130.0 89.0,130.0" fill="#1B1F2A" stroke="none"/><rect x="86" y="128" width="28" height="9" rx="2" fill="#1B1F2A" stroke="none"/><rect x="84" y="136" width="32" height="54" rx="14" fill="#1B1F2A" stroke="none"/></g><polygon points="91.0,18.0 95.0,12.0 105.0,12.0 109.0,18.0 111.0,130.0 89.0,130.0" fill="#8C9AAE" stroke="#1B1F2A" stroke-width="4.5" stroke-linejoin="round" stroke-linecap="round"/><line x1="92" y1="29" x2="108" y2="24" stroke="#5D6B80" stroke-width="2" stroke-linecap="round"/><line x1="92" y1="36" x2="108" y2="31" stroke="#5D6B80" stroke-width="2" stroke-linecap="round"/><line x1="92" y1="43" x2="108" y2="38" stroke="#5D6B80" stroke-width="2" stroke-linecap="round"/><line x1="92" y1="50" x2="108" y2="45" stroke="#5D6B80" stroke-width="2" stroke-linecap="round"/><line x1="92" y1="57" x2="108" y2="52" stroke="#5D6B80" stroke-width="2" stroke-linecap="round"/><line x1="92" y1="64" x2="108" y2="59" stroke="#5D6B80" stroke-width="2" stroke-linecap="round"/><line x1="92" y1="71" x2="108" y2="66" stroke="#5D6B80" stroke-width="2" stroke-linecap="round"/><line x1="92" y1="78" x2="108" y2="73" stroke="#5D6B80" stroke-width="2" stroke-linecap="round"/><line x1="92" y1="85" x2="108" y2="80" stroke="#5D6B80" stroke-width="2" stroke-linecap="round"/><line x1="92" y1="92" x2="108" y2="87" stroke="#5D6B80" stroke-width="2" stroke-linecap="round"/><line x1="92" y1="99" x2="108" y2="94" stroke="#5D6B80" stroke-width="2" stroke-linecap="round"/><line x1="92" y1="106" x2="108" y2="101" stroke="#5D6B80" stroke-width="2" stroke-linecap="round"/><line x1="92" y1="113" x2="108" y2="108" stroke="#5D6B80" stroke-width="2" stroke-linecap="round"/><line x1="92" y1="120" x2="108" y2="115" stroke="#5D6B80" stroke-width="2" stroke-linecap="round"/><rect x="86" y="128" width="28" height="9" rx="2" fill="#C3CDD8" stroke="#1B1F2A" stroke-width="4.5" stroke-linejoin="round" stroke-linecap="round"/><rect x="84" y="136" width="32" height="54" rx="14" fill="#E9A55E" stroke="#1B1F2A" stroke-width="4.5" stroke-linejoin="round" stroke-linecap="round"/><line x1="92" y1="150" x2="92" y2="178" stroke="#C9803C" stroke-width="3" stroke-linecap="round"/><line x1="100" y1="150" x2="100" y2="178" stroke="#C9803C" stroke-width="3" stroke-linecap="round"/><line x1="108" y1="150" x2="108" y2="178" stroke="#C9803C" stroke-width="3" stroke-linecap="round"/></g></svg>